<?xml version="1.0" encoding="UTF-8"?>
<svg version="1.1" xmlns="http://www.w3.org/2000/svg" width="500" height="500">
<path d="M0 0 C1.30066406 0.02835938 2.60132813 0.05671875 3.94140625 0.0859375 C63.006341 1.94046062 122.93247497 25.71616114 165.32080078 67.3515625 C167.18911481 69.18565036 169.07755307 70.99795383 170.96484375 72.8125 C178.88580835 80.50301958 186.1523248 88.38205385 192.70996094 97.265625 C194.01458755 99.01961203 195.35120384 100.74488957 196.6953125 102.46875 C234.670652 151.81297793 250.74206186 217.97599015 243.25 279.39453125 C237.38822593 323.85191429 221.47461532 365.33527736 194 401 C193.06994141 402.21816406 193.06994141 402.21816406 192.12109375 403.4609375 C186.77756025 410.30497839 180.98605548 416.71793079 175 423 C174.14245117 423.90057129 174.14245117 423.90057129 173.26757812 424.81933594 C164.73949113 433.71002728 155.92258247 441.70233559 146 449 C145.14390137 449.63929443 145.14390137 449.63929443 144.27050781 450.29150391 C135.53152723 456.80507573 126.48010117 462.62589989 117 468 C116.01241699 468.56267578 116.01241699 468.56267578 115.00488281 469.13671875 C103.7402514 475.49307312 92.12670659 480.52423531 80 485 C79.24605957 485.27972656 78.49211914 485.55945313 77.71533203 485.84765625 C15.98839353 508.41771811 -52.49844826 503.1286765 -111.7980957 476.10693359 C-136.02601324 464.72892213 -157.79797301 449.6384701 -177 431 C-177.62116699 430.40461426 -178.24233398 429.80922852 -178.88232422 429.19580078 C-187.5360365 420.87677402 -195.57176481 412.40550503 -202.70556641 402.74316406 C-204.02587785 400.96515129 -205.3752701 399.21246329 -206.73046875 397.4609375 C-246.33209745 345.69515291 -260.53717283 278.90929233 -252.62109375 214.93798828 C-245.71886523 164.60365432 -223.09845876 118.56128731 -188.98828125 81.2109375 C-187.4039618 79.44919917 -185.90609002 77.66911213 -184.4375 75.8125 C-181.91825843 72.9056828 -179.25957135 70.50950669 -176.33203125 68.02734375 C-174.668258 66.58094791 -173.04430688 65.08821315 -171.44921875 63.56640625 C-158.75084283 51.4651877 -144.30693435 41.51945581 -129 33 C-128.23381348 32.56977539 -127.46762695 32.13955078 -126.67822266 31.69628906 C-100.73891664 17.25310306 -73.27312083 7.77030049 -44 3 C-43.31067383 2.88672363 -42.62134766 2.77344727 -41.91113281 2.65673828 C-28.13252199 0.45536002 -13.95082116 -0.40330889 0 0 Z " fill="#58163C" transform="translate(255,0)"/>
<path d="M0 0 C4.31374504 4.31374504 5.22688417 12.12431969 6 18 C7.010625 18.061875 8.02125 18.12375 9.0625 18.1875 C20.47321312 19.66441854 30.79668997 24.21217665 40 31 C40.63164062 31.44859375 41.26328125 31.8971875 41.9140625 32.359375 C49.439583 38.20110324 54.79782592 46.59565185 59 55 C65.93 55.33 72.86 55.66 80 56 C80 56.66 80 57.32 80 58 C78.9171875 58.58007812 77.834375 59.16015625 76.71875 59.7578125 C72.16114141 62.21762051 67.97830202 64.65889918 65 69 C63.56962345 74.92663771 64.39067852 81.00034052 64.78125 87.0234375 C65.49071342 98.71110827 60.6397092 110.4894631 54 120 C51.62654627 122.59967953 49.22116645 125.10036335 46.66015625 127.515625 C44.67375648 129.96432482 44.67375648 129.96432482 45.1171875 133.33203125 C46.01576494 137.06550125 46.97509564 140.7543562 48.0625 144.4375 C48.60583984 146.29181641 48.60583984 146.29181641 49.16015625 148.18359375 C49.43730469 149.11300781 49.71445312 150.04242188 50 151 C44.75942186 149.20891633 41.07182885 146.03842713 36.81640625 142.58203125 C34.11034752 140.74046384 34.11034752 140.74046384 31.05859375 141.10546875 C27.77837398 142.06481783 24.66288057 143.2047251 21.5 144.5 C8.01140753 150.02389977 -8.24281351 149.5353362 -22 145 C-24.42375498 143.97346848 -26.77204676 142.90386774 -29.09765625 141.671875 C-31.62742792 140.77840328 -32.50872736 140.97206949 -35 142 C-37.26145862 143.47692791 -39.44566354 144.97421126 -41.625 146.5625 C-47.73918816 151 -47.73918816 151 -50 151 C-49.80664062 150.31035156 -49.61328125 149.62070312 -49.4140625 148.91015625 C-48.86965763 146.94544758 -48.34615567 144.97486837 -47.83984375 143 C-47 140 -47 140 -46.00390625 137.6875 C-45.03688855 135.17047785 -44.65784841 133.69277748 -45 131 C-46.78943264 128.35090178 -48.7427706 126.0121792 -50.90332031 123.65917969 C-61.18096517 112.44397497 -65.2102819 97.87604551 -65.125 82.9375 C-65.12886719 82.25623047 -65.13273438 81.57496094 -65.13671875 80.87304688 C-65.12891571 76.81156646 -64.78313127 72.98402497 -64 69 C-64.61875 68.71125 -65.2375 68.4225 -65.875 68.125 C-68 67 -68 67 -70 65 C-71.32781878 63.9926892 -72.66209359 62.99387334 -74 62 C-75.67036393 60.67130142 -77.33784732 59.33895632 -79 58 C-75.69005287 56.34502644 -72.00877 56.89915665 -68.375 56.9375 C-67.17230469 56.94426758 -67.17230469 56.94426758 -65.9453125 56.95117188 C-63.96350994 56.96296832 -61.98174567 56.98090395 -60 57 C-59.7525 56.30390625 -59.505 55.6078125 -59.25 54.890625 C-52.86203096 40.11844659 -39.934791 28.17523493 -25.08398438 22.23339844 C-19.15785914 20.04355956 -13.20251697 18.22053107 -7 17 C-6.01 16.505 -6.01 16.505 -5 16 C-5.495 14.515 -5.495 14.515 -6 13 C-5.34 13 -4.68 13 -4 13 C-4.495 11.515 -4.495 11.515 -5 10 C-4.51171875 7.7734375 -4.51171875 7.7734375 -3.6875 5.375 C-3.42324219 4.57835937 -3.15898437 3.78171875 -2.88671875 2.9609375 C-2 1 -2 1 0 0 Z " fill="#68163C" transform="translate(250,167)"/>
<path d="M0 0 C3.8905732 2.22865512 5.96620368 4.13848375 7.75 8.375 C8.8052784 13.98069874 9.21280022 19.05575937 6.08203125 24.01953125 C3.7363613 26.58938913 1.26725844 28.97352051 -1.25 31.375 C-8.55925648 39.51537132 -14.60707081 48.04019528 -20.25 57.375 C-20.60336426 57.95008301 -20.95672852 58.52516602 -21.32080078 59.11767578 C-28.67306139 71.1384692 -33.72299655 83.4991137 -37.37890625 97.13671875 C-37.90420014 99.08949289 -38.4643519 101.03400747 -39.08984375 102.95703125 C-47.13201718 128.36389755 -45.44298199 161.24059763 -37.25 186.375 C-36.85847666 187.69244169 -36.46794061 189.010177 -36.078125 190.328125 C-28.58797118 214.89419232 -15.42412561 235.69198609 2.06958008 254.35351562 C7.24354277 259.88875484 8.20159514 262.95434186 8.06640625 270.42578125 C7.50088499 275.69699796 4.98693143 278.25874481 1.1875 281.6875 C-3.01563304 284.59736134 -7.25644122 285.15356562 -12.25 284.375 C-37.07446784 273.85055831 -54.50718077 235.58886183 -64.19580078 212.08007812 C-69.69715986 198.25039261 -72.81056136 184.03099247 -75.25 169.375 C-75.52046143 167.76540405 -75.52046143 167.76540405 -75.79638672 166.12329102 C-76.33019778 161.71231081 -76.43079661 157.39181797 -76.453125 152.953125 C-76.45882507 152.0536615 -76.46452515 151.154198 -76.47039795 150.22747803 C-76.47981185 148.32467814 -76.48636751 146.42186221 -76.49023438 144.51904297 C-76.49983079 141.67514546 -76.5308426 138.83200619 -76.5625 135.98828125 C-76.66173131 118.80274728 -74.51114943 102.77104787 -69.25 86.375 C-68.84789864 85.02375239 -68.44690904 83.67217358 -68.046875 82.3203125 C-59.07432496 52.87809189 -40.77089628 17.97783514 -15.25 -0.625 C-9.85269529 -2.42410157 -5.14951716 -2.31968904 0 0 Z " fill="#FDFDFD" transform="translate(131.25,108.625)"/>
<path d="M0 0 C23.83775511 14.31964968 39.66201244 47.50734559 49.81640625 72.06640625 C50.2340625 73.05511719 50.65171875 74.04382813 51.08203125 75.0625 C54.62304231 84.0695956 56.74139722 93.63438498 58.81640625 103.06640625 C58.98591797 103.83001465 59.15542969 104.59362305 59.33007812 105.38037109 C63.88873579 126.96779043 63.87319151 152.3731749 59.81640625 174.06640625 C59.67106445 174.90010742 59.52572266 175.73380859 59.37597656 176.59277344 C52.9652466 212.58755066 36.53307193 245.2565801 12.24633789 272.44360352 C10.20158494 274.76415548 8.22662569 277.14270337 6.25244141 279.5234375 C2.58303503 283.46608426 -1.31857844 285.28403702 -6.68359375 285.56640625 C-11.52347518 285.31905286 -14.3004337 283.95974119 -18.18359375 281.06640625 C-22.31849281 275.73456272 -23.64031896 271.80310307 -23.18359375 265.06640625 C-21.23500934 260.3847424 -18.70733838 257.23972015 -15.18359375 253.62890625 C7.15235602 229.98435548 20.93672664 199.82232288 26.81640625 168.06640625 C27.15865234 166.34357422 27.15865234 166.34357422 27.5078125 164.5859375 C30.65096559 146.54028236 29.31339726 127.93949307 25.81640625 110.06640625 C25.68250488 109.34437012 25.54860352 108.62233398 25.41064453 107.87841797 C19.96717164 79.11708667 5.3263393 53.88612362 -13.640625 32.00390625 C-22.92878802 21.27472254 -22.92878802 21.27472254 -23.55859375 15.81640625 C-23.01411864 10.37165516 -21.51226848 6.24263952 -17.453125 2.44921875 C-11.91420672 -1.46450794 -6.36712455 -2.72225898 0 0 Z " fill="#FDFDFD" transform="translate(383.18359375,107.93359375)"/>
<path d="M0 0 C4.73298153 3.18961799 8.25034884 5.94333877 9.4609375 11.74609375 C9.875572 19.49580993 7.8752609 24.14996398 2.875 29.9375 C1.58704544 31.33675928 0.29524357 32.73248517 -1 34.125 C-6.15031288 39.76769461 -9.59737226 46.22436358 -13.125 52.9375 C-13.599375 53.79730469 -14.07375 54.65710938 -14.5625 55.54296875 C-25.09886544 76.25351206 -26.41029718 102.35653593 -19.35888672 124.32421875 C-14.01018734 139.94351066 -6.33486744 153.01713919 5.0625 164.984375 C9.34032131 169.59409623 9.31099079 172.93764675 9.1796875 178.9921875 C8.67383008 183.88214254 6.82128055 186.32277609 3.109375 189.40234375 C-0.70748836 192.11472106 -4.22126039 193.84142255 -9.0625 193.47265625 C-23.07218613 189.83756724 -32.63851178 172.95011946 -39.51318359 161.3449707 C-50.46532852 142.38933525 -56.52429032 121.49972531 -56.38574219 99.57714844 C-56.37505042 97.57195551 -56.38568449 95.56766544 -56.3984375 93.5625 C-56.33905774 63.45696095 -45.47319128 34.90587172 -26.125 11.9375 C-25.32578125 10.97457031 -24.5265625 10.01164063 -23.703125 9.01953125 C-16.89760244 1.10639847 -10.47913907 -3.56290728 0 0 Z " fill="#FDFCFD" transform="translate(176.125,154.0625)"/>
<path d="M0 0 C7.99190428 3.34481071 12.94020875 10.27473184 18 17 C18.66902344 17.84433594 19.33804688 18.68867188 20.02734375 19.55859375 C41.14592898 47.03366405 48.50376282 81.84416365 44.38671875 115.921875 C40.2191355 143.86048402 26.62831719 172.33618188 5 191 C0.56418968 193.92763481 -2.70758996 194.64994509 -8 194 C-13.45396813 191.55511774 -16.51204141 188.82158982 -20 184 C-21.53860708 179.38417877 -21.66736936 175.56479462 -19.7421875 171.05078125 C-18.03090031 168.05411019 -16.28383594 165.95200505 -13.875 163.5 C6.74746394 141.16459525 12.10394764 114.47244108 11 85 C9.60512303 64.64431502 -0.25174204 47.44500484 -13 32 C-14.31998931 30.36016713 -15.63291676 28.71461567 -16.9375 27.0625 C-17.50339844 26.35222656 -18.06929688 25.64195312 -18.65234375 24.91015625 C-21.35818071 21.07492648 -21.30920816 17.56082031 -21 13 C-17.73696104 3.59477004 -9.70594145 -1.51892667 0 0 Z " fill="#FDFCFD" transform="translate(335,153)"/>
<path d="M0 0 C2.71375289 0.78843972 4.3780731 1.73800233 6.63647461 3.41479492 C7.37720215 3.95773193 8.11792969 4.50066895 8.88110352 5.06005859 C9.65373535 5.63989502 10.42636719 6.21973145 11.22241211 6.81713867 C12.82653461 8.0020943 14.43070122 9.18699021 16.03491211 10.37182617 C17.20086914 11.23952637 17.20086914 11.23952637 18.39038086 12.12475586 C20.31886683 13.54893421 22.26156345 14.9458805 24.22241211 16.32495117 C25.21241211 17.02362305 26.20241211 17.72229492 27.22241211 18.44213867 C28.08092773 19.04413086 28.93944336 19.64612305 29.82397461 20.26635742 C30.40920898 20.75749023 30.99444336 21.24862305 31.59741211 21.75463867 C31.59741211 22.41463867 31.59741211 23.07463867 31.59741211 23.75463867 C15.07863628 31.98813509 -1.37478189 34.53890951 -19.47680664 29.75463867 C-24.02848572 28.19892459 -28.23082432 26.13715827 -32.40258789 23.75463867 C-32.40258789 23.09463867 -32.40258789 22.43463867 -32.40258789 21.75463867 C-30.94067383 20.47705078 -30.94067383 20.47705078 -28.88696289 19.03198242 C-28.13568115 18.49718262 -27.38439941 17.96238281 -26.61035156 17.41137695 C-25.79928955 16.84402832 -24.98822754 16.27667969 -24.15258789 15.69213867 C-22.49665615 14.52295792 -20.84171075 13.35237897 -19.18774414 12.18041992 C-17.964021 11.31344482 -17.964021 11.31344482 -16.71557617 10.42895508 C-14.67274805 8.95020109 -12.68293169 7.43164804 -10.71118164 5.86010742 C-9.6812207 5.04155273 -8.65125977 4.22299805 -7.59008789 3.37963867 C-6.69676758 2.6500293 -5.80344727 1.92041992 -4.88305664 1.16870117 C-2.40258789 -0.24536133 -2.40258789 -0.24536133 0 0 Z " fill="#FCFAFB" transform="translate(250.402587890625,283.245361328125)"/>
<path d="M0 0 C7.46166961 4.48964866 14.42399997 9.45519145 21.33984375 14.73535156 C25.145132 17.63669435 28.98669276 20.39290584 33 23 C32.26120659 27.17060794 31.09209443 31.15750147 29.8125 35.1875 C29.59762939 35.87005859 29.38275879 36.55261719 29.16137695 37.25585938 C26.53875464 45.53605304 23.77226031 53.76895907 21 62 C11.73188665 58.16917982 6.74702045 46.66498478 3 38 C-0.15113867 30.07291678 -1.17373968 22.47506687 -1.125 13.9375 C-1.12886719 13.25623047 -1.13273438 12.57496094 -1.13671875 11.87304688 C-1.12891571 7.81156646 -0.78313127 3.98402497 0 0 Z " fill="#FDFCFC" transform="translate(186,236)"/>
<path d="M0 0 C13.58343896 1.82382848 24.33511582 6.40314624 35 15 C35.83273437 15.62003906 36.66546875 16.24007812 37.5234375 16.87890625 C40.35266118 19.30204262 42.40950167 21.88293524 44.625 24.875 C45.38039063 25.88304687 46.13578125 26.89109375 46.9140625 27.9296875 C52 35.41573034 52 35.41573034 52 39 C38.8 39 25.6 39 12 39 C10.02 33.121875 8.04 27.24375 6 21.1875 C5.37351562 19.33535889 4.74703125 17.48321777 4.1015625 15.57495117 C3.60901722 14.10607695 3.1168068 12.63709039 2.625 11.16796875 C2.36589844 10.40601196 2.10679687 9.64405518 1.83984375 8.85900879 C0.81723541 5.79270552 0 3.25530462 0 0 Z " fill="#FBF9F9" transform="translate(257,185)"/>
<path d="M0 0 C4.70585105 8.36961661 3.00209332 21.61130416 0.51293945 30.56298828 C-3.3047455 42.52886649 -8.96144031 52.21451998 -18 61 C-18.99 61.495 -18.99 61.495 -20 62 C-21.44101819 57.87622075 -22.87716288 53.75075972 -24.3125 49.625 C-24.91868164 47.89056641 -24.91868164 47.89056641 -25.53710938 46.12109375 C-32 27.52057927 -32 27.52057927 -32 23 C-30.56982422 21.62475586 -30.56982422 21.62475586 -28.5546875 20.21484375 C-27.44262939 19.42533325 -27.44262939 19.42533325 -26.30810547 18.61987305 C-25.50518066 18.06468994 -24.70225586 17.50950684 -23.875 16.9375 C-22.66094482 16.08055542 -22.66094482 16.08055542 -21.42236328 15.20629883 C-19.76086756 14.03404487 -18.09661719 12.86568584 -16.4296875 11.70117188 C-12.8917336 9.22403534 -9.384511 6.7046697 -5.875 4.1875 C-3.91758851 2.79036783 -1.95884323 1.39512468 0 0 Z " fill="#FCFBFB" transform="translate(313,236)"/>
<path d="M0 0 C-0.7455572 4.38061223 -2.08368251 8.50889026 -3.50390625 12.70703125 C-3.7191394 13.35071655 -3.93437256 13.99440186 -4.15612793 14.65759277 C-4.95495378 17.04366857 -5.75903269 19.42798313 -6.5625 21.8125 C-9.2540625 29.8253125 -9.2540625 29.8253125 -12 38 C-25.2 38 -38.4 38 -52 38 C-47.30535493 23.91606479 -36.05640933 13.7311065 -23.33203125 6.609375 C-16.21045124 3.16964351 -8.01103775 -0.50163994 0 0 Z " fill="#FDFBFC" transform="translate(243,185)"/>
</svg>
